<svg width="32" height="32" viewBox="0 0 32 32" fill="none" xmlns="http://www.w3.org/2000/svg">
<path d="M14.1333 17.8667L11.2667 15C11.0222 14.7556 10.7111 14.6333 10.3333 14.6333C9.95556 14.6333 9.64444 14.7556 9.4 15C9.15556 15.2444 9.03333 15.5556 9.03333 15.9333C9.03333 16.3111 9.15556 16.6222 9.4 16.8667L13.2 20.6667C13.4667 20.9333 13.7778 21.0667 14.1333 21.0667C14.4889 21.0667 14.8 20.9333 15.0667 20.6667L22.6 13.1333C22.8444 12.8889 22.9667 12.5778 22.9667 12.2C22.9667 11.8222 22.8444 11.5111 22.6 11.2667C22.3556 11.0222 22.0444 10.9 21.6667 10.9C21.2889 10.9 20.9778 11.0222 20.7333 11.2667L14.1333 17.8667ZM6.66667 28C5.93333 28 5.30578 27.7391 4.784 27.2173C4.26222 26.6956 4.00089 26.0676 4 25.3333V6.66667C4 5.93333 4.26133 5.30578 4.784 4.784C5.30667 4.26222 5.93422 4.00089 6.66667 4H25.3333C26.0667 4 26.6947 4.26133 27.2173 4.784C27.74 5.30667 28.0009 5.93422 28 6.66667V25.3333C28 26.0667 27.7391 26.6947 27.2173 27.2173C26.6956 27.74 26.0676 28.0009 25.3333 28H6.66667ZM6.66667 25.3333H25.3333V6.66667H6.66667V25.3333Z" fill="#6D2E92" style="fill:#6D2E92;fill:color(display-p3 0.4275 0.1804 0.5725);fill-opacity:1;"/>
</svg>
