<svg width="64" height="64" viewBox="57 88 71 52" fill="none" xmlns="http://www.w3.org/2000/svg">
<path d="M127.227 116.351V127.06C123.931 127.198 116.723 126.753 108.074 127.198C99.8361 127.622 94.2528 132.667 92.0103 135.161C86.999 128.571 79.4707 127.381 75.9467 127.198H57V116.351H77.251L63.1783 101.935L70.8668 94.041L85.9693 109.143V88H98.2572V109.143L113.36 94.1783L120.98 101.73L106.838 116.351H127.227Z" fill="#6D2E92"/>
<path d="M127.227 135.985V130.699C121.483 130.699 109.241 130.63 104.161 131.454C99.5146 132.207 94.2757 136.191 92.0103 139.142C90.8021 137.111 85.3515 130.905 75.9467 130.905L57 130.767V135.985L79.2418 136.191C83.0861 135.985 88.8296 138.593 92.1476 139.898C96.0468 137.481 104.573 135.985 109.035 135.985H127.227Z" fill="#6D2E92"/>
</svg>
