<svg width="118" height="27" viewBox="0 0 118 27" fill="none" xmlns="http://www.w3.org/2000/svg">
<path d="M35.2647 14.2369V19.6145C33.6101 19.6834 29.9905 19.4599 25.6471 19.6834C21.5104 19.8964 18.7067 22.4297 17.5807 23.6822C15.0642 20.3729 11.2838 19.7754 9.51424 19.6834H0V14.2369H10.1692L3.10247 6.99779L6.96332 3.03352L14.5471 10.6173V0H20.7176V10.6173L28.3014 3.10247L32.1278 6.89437L25.0266 14.2369H35.2647Z" fill="#6D2E92" style="fill:#6D2E92;fill:color(display-p3 0.4275 0.1804 0.5725);fill-opacity:1;"/>
<path d="M35.2647 24.0958V21.4415C32.3806 21.4415 26.2331 21.407 23.6822 21.8207C21.349 22.199 18.7182 24.1993 17.5807 25.6815C16.9739 24.6612 14.2369 21.5449 9.51424 21.5449L0 21.476V24.0958L11.1689 24.1993C13.0993 24.0958 15.9835 25.4058 17.6496 26.0607C19.6076 24.8473 23.889 24.0958 26.1297 24.0958H35.2647Z" fill="#6D2E92" style="fill:#6D2E92;fill:color(display-p3 0.4275 0.1804 0.5725);fill-opacity:1;"/>
<path d="M58.068 15.4055H52.1077V22.0305H48.3941V5.06676H59.1913V8.50536H52.1077V12.0586H58.068V15.4055ZM63.0432 8.78045C61.9199 8.78045 61.0259 7.88641 61.0259 6.76313C61.0259 5.63986 61.9199 4.76875 63.0432 4.76875C64.1436 4.76875 65.0376 5.63986 65.0376 6.76313C65.0376 7.88641 64.1436 8.78045 63.0432 8.78045ZM61.301 22.0305V10.5685H64.8313V22.0305H61.301ZM71.01 22.0305H67.4797V10.5685H70.8037L71.0329 11.7606C71.7436 10.7748 73.0503 10.2017 74.5403 10.2017C77.2683 10.2017 78.85 11.944 78.85 14.947V22.0305H75.3197V15.7952C75.3197 14.351 74.5174 13.4111 73.3024 13.4111C71.904 13.4111 71.01 14.3281 71.01 15.7493V22.0305ZM83.1241 8.78045C82.0008 8.78045 81.1068 7.88641 81.1068 6.76313C81.1068 5.63986 82.0008 4.76875 83.1241 4.76875C84.2244 4.76875 85.1185 5.63986 85.1185 6.76313C85.1185 7.88641 84.2244 8.78045 83.1241 8.78045ZM81.3819 22.0305V10.5685H84.9122V22.0305H81.3819ZM86.7353 18.4085H90.0822C90.1281 19.2109 90.7241 19.6923 91.8015 19.6923C92.9019 19.6923 93.4062 19.3026 93.4062 18.7065C93.4062 18.3627 93.2228 17.9959 92.3746 17.8125L90.2656 17.354C88.1566 16.8955 87.125 15.9786 87.125 13.9613C87.125 11.5772 89.1653 10.2017 91.9162 10.2017C94.5753 10.2017 96.4322 11.7606 96.4322 14.0759H93.0853C93.0853 13.2965 92.6039 12.7692 91.7557 12.7692C90.9534 12.7692 90.449 13.1819 90.449 13.8008C90.449 14.3281 90.8846 14.6261 91.6869 14.8095L93.8189 15.2679C95.6986 15.6806 96.7302 16.5517 96.7302 18.3856C96.7302 20.8385 94.6441 22.3285 91.664 22.3285C88.638 22.3285 86.7353 20.7238 86.7353 18.4085ZM102.105 22.0305H98.5749V4.74582H102.128V11.7606C102.839 10.7748 104.145 10.2017 105.635 10.2017C108.363 10.2017 109.945 11.944 109.945 14.947V22.0305H106.415V15.7952C106.415 14.351 105.613 13.4111 104.398 13.4111C102.999 13.4111 102.105 14.3281 102.105 15.7493V22.0305ZM114.219 8.78045C113.096 8.78045 112.202 7.88641 112.202 6.76313C112.202 5.63986 113.096 4.76875 114.219 4.76875C115.32 4.76875 116.214 5.63986 116.214 6.76313C116.214 7.88641 115.32 8.78045 114.219 8.78045ZM112.477 22.0305V10.5685H116.007V22.0305H112.477Z" fill="#6D2E92" style="fill:#6D2E92;fill:color(display-p3 0.4275 0.1804 0.5725);fill-opacity:1;"/>
</svg>
