<svg width="16" height="16" viewBox="0 0 16 16" fill="none" xmlns="http://www.w3.org/2000/svg">
<path d="M10.6666 5.33331C11.7275 5.33331 12.7449 5.75474 13.4951 6.50489C14.2452 7.25503 14.6666 8.27245 14.6666 9.33331V14H12V9.33331C12 8.97969 11.8595 8.64055 11.6094 8.3905C11.3594 8.14046 11.0202 7.99998 10.6666 7.99998C10.313 7.99998 9.97387 8.14046 9.72382 8.3905C9.47377 8.64055 9.33329 8.97969 9.33329 9.33331V14H6.66663V9.33331C6.66663 8.27245 7.08805 7.25503 7.8382 6.50489C8.58834 5.75474 9.60576 5.33331 10.6666 5.33331Z" stroke="#6D2E92" style="stroke:#6D2E92;stroke:color(display-p3 0.4275 0.1804 0.5725);stroke-opacity:1;" stroke-linecap="round" stroke-linejoin="round"/>
<path d="M4.00004 6H1.33337V14H4.00004V6Z" stroke="#6D2E92" style="stroke:#6D2E92;stroke:color(display-p3 0.4275 0.1804 0.5725);stroke-opacity:1;" stroke-linecap="round" stroke-linejoin="round"/>
<path d="M2.66671 3.99998C3.40309 3.99998 4.00004 3.40303 4.00004 2.66665C4.00004 1.93027 3.40309 1.33331 2.66671 1.33331C1.93033 1.33331 1.33337 1.93027 1.33337 2.66665C1.33337 3.40303 1.93033 3.99998 2.66671 3.99998Z" stroke="#6D2E92" style="stroke:#6D2E92;stroke:color(display-p3 0.4275 0.1804 0.5725);stroke-opacity:1;" stroke-linecap="round" stroke-linejoin="round"/>
</svg>
