<svg width="348" height="228" viewBox="0 0 348 228" fill="none" xmlns="http://www.w3.org/2000/svg">
<rect width="348" height="228" fill="white" style="fill:white;fill-opacity:1;"/>
<path d="M127.227 116.351V127.06C123.931 127.198 116.723 126.753 108.074 127.198C99.8361 127.622 94.2528 132.667 92.0103 135.161C86.999 128.571 79.4707 127.381 75.9467 127.198H57V116.351H77.251L63.1783 101.935L70.8668 94.041L85.9693 109.143V88H98.2572V109.143L113.36 94.1783L120.98 101.73L106.838 116.351H127.227Z" fill="#6D2E92" style="fill:#6D2E92;fill:color(display-p3 0.4275 0.1804 0.5725);fill-opacity:1;"/>
<path d="M127.227 135.985V130.699C121.483 130.699 109.241 130.63 104.161 131.454C99.5146 132.207 94.2757 136.191 92.0103 139.142C90.8021 137.111 85.3515 130.905 75.9467 130.905L57 130.767V135.985L79.2418 136.191C83.0861 135.985 88.8296 138.593 92.1476 139.898C96.0468 137.481 104.573 135.985 109.035 135.985H127.227Z" fill="#6D2E92" style="fill:#6D2E92;fill:color(display-p3 0.4275 0.1804 0.5725);fill-opacity:1;"/>
<path d="M172.637 118.256H160.768V131.449H153.373V97.6669H174.874V104.515H160.768V111.591H172.637V118.256ZM182.545 105.062C180.308 105.062 178.528 103.282 178.528 101.045C178.528 98.8082 180.308 97.0735 182.545 97.0735C184.736 97.0735 186.517 98.8082 186.517 101.045C186.517 103.282 184.736 105.062 182.545 105.062ZM179.076 131.449V108.623H186.106V131.449H179.076ZM198.41 131.449H191.38V108.623H197.999L198.456 110.997C199.871 109.034 202.473 107.893 205.44 107.893C210.873 107.893 214.023 111.362 214.023 117.343V131.449H206.993V119.032C206.993 116.156 205.395 114.284 202.975 114.284C200.191 114.284 198.41 116.11 198.41 118.94V131.449ZM222.534 105.062C220.297 105.062 218.517 103.282 218.517 101.045C218.517 98.8082 220.297 97.0735 222.534 97.0735C224.726 97.0735 226.506 98.8082 226.506 101.045C226.506 103.282 224.726 105.062 222.534 105.062ZM219.065 131.449V108.623H226.095V131.449H219.065ZM229.726 124.236H236.391C236.482 125.834 237.669 126.792 239.815 126.792C242.006 126.792 243.01 126.016 243.01 124.829C243.01 124.145 242.645 123.414 240.956 123.049L236.756 122.136C232.556 121.223 230.502 119.397 230.502 115.38C230.502 110.632 234.565 107.893 240.043 107.893C245.338 107.893 249.036 110.997 249.036 115.608H242.371C242.371 114.056 241.412 113.006 239.723 113.006C238.126 113.006 237.121 113.827 237.121 115.06C237.121 116.11 237.989 116.703 239.586 117.069L243.832 117.982C247.575 118.803 249.63 120.538 249.63 124.19C249.63 129.075 245.475 132.042 239.541 132.042C233.515 132.042 229.726 128.847 229.726 124.236ZM260.333 131.449H253.303V97.0278H260.379V110.997C261.794 109.034 264.396 107.893 267.364 107.893C272.796 107.893 275.946 111.362 275.946 117.343V131.449H268.916V119.032C268.916 116.156 267.318 114.284 264.898 114.284C262.114 114.284 260.333 116.11 260.333 118.94V131.449ZM284.457 105.062C282.221 105.062 280.44 103.282 280.44 101.045C280.44 98.8082 282.221 97.0735 284.457 97.0735C286.649 97.0735 288.429 98.8082 288.429 101.045C288.429 103.282 286.649 105.062 284.457 105.062ZM280.988 131.449V108.623H288.018V131.449H280.988Z" fill="#6D2E92" style="fill:#6D2E92;fill:color(display-p3 0.4275 0.1804 0.5725);fill-opacity:1;"/>
</svg>
