<svg width="32" height="32" viewBox="0 0 32 32" fill="none" xmlns="http://www.w3.org/2000/svg">
<path d="M12.1426 7.26402C12.9399 4.93069 16.1639 4.86002 17.1092 7.05202L17.1892 7.26535L18.2652 10.412C18.5118 11.1337 18.9103 11.794 19.4338 12.3486C19.9573 12.9031 20.5936 13.339 21.2999 13.6267L21.5892 13.7347L24.7359 14.8094C27.0692 15.6067 27.1399 18.8307 24.9492 19.776L24.7359 19.856L21.5892 20.932C20.8673 21.1784 20.2067 21.5769 19.6519 22.1004C19.0971 22.6239 18.6611 23.2603 18.3732 23.9667L18.2652 24.2547L17.1906 27.4027C16.3932 29.736 13.1692 29.8067 12.2252 27.616L12.1426 27.4027L11.0679 24.256C10.8215 23.5341 10.4231 22.8735 9.89955 22.3187C9.37604 21.7639 8.73962 21.3279 8.03323 21.04L7.74523 20.932L4.59856 19.8574C2.26389 19.06 2.19323 15.836 4.38523 14.892L4.59856 14.8094L7.74523 13.7347C8.46687 13.4881 9.12724 13.0896 9.68179 12.5661C10.2363 12.0426 10.6722 11.4063 10.9599 10.7L11.0679 10.412L12.1426 7.26402ZM14.6666 8.12535L13.5919 11.272C13.2164 12.3724 12.6056 13.3778 11.8019 14.218C10.9983 15.0583 10.0212 15.7133 8.93856 16.1374L8.60523 16.2587L5.45856 17.3334L8.60523 18.408C9.70563 18.7835 10.711 19.3943 11.5512 20.198C12.3915 21.0016 13.0465 21.9788 13.4706 23.0614L13.5919 23.3947L14.6666 26.5414L15.7412 23.3947C16.1167 22.2943 16.7275 21.2889 17.5312 20.4487C18.3348 19.6084 19.312 18.9535 20.3946 18.5294L20.7279 18.4094L23.8746 17.3334L20.7279 16.2587C19.6275 15.8832 18.6222 15.2724 17.7819 14.4687C16.9416 13.6651 16.2867 12.688 15.8626 11.6054L15.7426 11.272L14.6666 8.12535ZM25.3332 2.66669C25.5827 2.66669 25.8271 2.73666 26.0388 2.86865C26.2504 3.00064 26.4208 3.18936 26.5306 3.41335L26.5946 3.56935L27.0612 4.93735L28.4306 5.40402C28.6805 5.48895 28.8997 5.64617 29.0602 5.85577C29.2207 6.06537 29.3154 6.31791 29.3323 6.58138C29.3491 6.84485 29.2874 7.1074 29.1549 7.33574C29.0223 7.56408 28.825 7.74794 28.5879 7.86402L28.4306 7.92802L27.0626 8.39469L26.5959 9.76402C26.5108 10.0139 26.3535 10.233 26.1438 10.3933C25.9341 10.5537 25.6815 10.6483 25.4181 10.665C25.1546 10.6817 24.8921 10.6198 24.6639 10.4872C24.4356 10.3546 24.2519 10.1572 24.1359 9.92002L24.0719 9.76402L23.6052 8.39602L22.2359 7.92935C21.9859 7.84443 21.7668 7.6872 21.6063 7.4776C21.4457 7.268 21.351 7.01546 21.3342 6.75199C21.3173 6.48852 21.3791 6.22598 21.5116 5.99764C21.6441 5.7693 21.8414 5.58543 22.0786 5.46935L22.2359 5.40535L23.6039 4.93869L24.0706 3.56935C24.1605 3.30592 24.3306 3.07723 24.557 2.91535C24.7835 2.75347 25.0549 2.66652 25.3332 2.66669Z" fill="#6D2E92" style="fill:#6D2E92;fill:color(display-p3 0.4275 0.1804 0.5725);fill-opacity:1;"/>
</svg>
